<?xml version="1.0" encoding="UTF-8"?>
<svg id="Capa_1" data-name="Capa 1" xmlns="http://www.w3.org/2000/svg" viewBox="0 0 149.63 150">
  <defs>
    <style>
      .cls-1 {
        fill: #fff;
      }
    </style>
  </defs>
  <path class="cls-1" d="M142.2,77.31l-53.8-1.22c-.43-.02-11.4-.11-16.16-.29-.19,1.39-.61,2.7-1.22,3.9l37.97,20.19-3.63,5.8-35.6-24.01c-.78,1.01-1.7,1.9-2.74,2.63l22.35,37.19-6.1,3.11-18.26-39.15c-1.37.62-2.87.99-4.44,1.08l2.27,43.38-6.84-.12,2.27-43.34c-1.27-.16-2.48-.51-3.6-1.03l-21.06,38-5.74-3.73,24.8-35.42c-1.28-.91-2.39-2.04-3.25-3.36l-36.09,23.43-3.32-5.98,38.3-19.52c-.39-.94-.66-1.94-.81-2.98l-43.08,1.5.24-6.84,42.72,2.99c.08-1.84.55-3.57,1.34-5.12L9.75,49.39l3.42-5.92,36.78,22.98c.7-.91,1.52-1.72,2.44-2.4L29.17,26.88l6.04-3.21,19.11,39.19c1.31-.65,2.75-1.09,4.27-1.24l-3.05-43.61h6.84l-1.52,43.6c1.25.1,2.45.38,3.57.83l20.45-38.45,5.8,3.63-24.19,35.87c1.34.84,2.51,1.93,3.44,3.2l35.56-23.98,3.42,5.92-37.77,20.08c.57,1.19.95,2.47,1.12,3.83l13.93-.34,56.15-1.9c1.28-2.68,3.93-4.58,7.04-4.8C144.71,28.57,113.2,0,75,0,33.58,0,0,33.58,0,75s33.58,75,75,75c38.91,0,70.89-29.63,74.63-67.55-3.35-.14-6.19-2.21-7.44-5.14h.01Z"/>
</svg>